<svg width="103" height="103" viewBox="0 0 103 103" fill="none" xmlns="http://www.w3.org/2000/svg">
<path d="M0 10C0 4.47715 4.47715 0 10 0H93C98.5228 0 103 4.47715 103 10V93C103 98.5228 98.5228 103 93 103H10C4.47715 103 0 98.5228 0 93V10Z" fill="#E2136E"/>
<path fill-rule="evenodd" clip-rule="evenodd" d="M51 80C66.464 80 79 67.464 79 52C79 36.536 66.464 24 51 24C35.536 24 23 36.536 23 52C23 67.464 35.536 80 51 80ZM51 83C68.1208 83 82 69.1208 82 52C82 34.8792 68.1208 21 51 21C33.8792 21 20 34.8792 20 52C20 69.1208 33.8792 83 51 83Z" fill="white"/>
<path fill-rule="evenodd" clip-rule="evenodd" d="M51 34.5H54V51.3787L68.5607 65.9393L66.4393 68.0607L51 52.6213V34.5Z" fill="white"/>
</svg>
